<svg width="77" height="76" viewBox="0 0 77 76" fill="none" xmlns="http://www.w3.org/2000/svg">
<path opacity="0.06" d="M55.4036 0.265625H21.6277C10.08 0.265625 0.71875 9.62687 0.71875 21.1745V54.9505C0.71875 66.4981 10.08 75.8594 21.6277 75.8594H55.4036C66.9513 75.8594 76.3125 66.4981 76.3125 54.9505V21.1745C76.3125 9.62687 66.9513 0.265625 55.4036 0.265625Z" fill="#0089FF"/>
<path d="M38.5157 63.8031C52.7317 63.8031 64.2561 52.2787 64.2561 38.0627C64.2561 23.8466 52.7317 12.3223 38.5157 12.3223C24.2996 12.3223 12.7753 23.8466 12.7753 38.0627C12.7753 52.2787 24.2996 63.8031 38.5157 63.8031Z" fill="#1B76FF"/>
<path fill-rule="evenodd" clip-rule="evenodd" d="M25.1058 32.9688H29.7516V51.1299H25.1058C24.4063 51.1299 23.8392 50.5898 23.8392 49.9236V34.175C23.8392 33.5088 24.4063 32.9688 25.1058 32.9688Z" stroke="white" stroke-width="1.60838" stroke-linecap="round" stroke-linejoin="round"/>
<path fill-rule="evenodd" clip-rule="evenodd" d="M51.7796 47.7296C51.4855 49.993 49.9732 51.1297 47.2848 51.1297H33.2172C31.3058 51.1297 29.7516 49.6668 29.7516 47.868V32.9904C34.2128 32.5555 36.4434 30.9981 36.4434 26.8103V24.8034C36.4434 22.6882 38.2439 20.9734 40.4649 20.9734C41.3113 20.9734 42.1361 21.2277 42.8219 21.7001C43.7671 22.3525 44.3693 23.588 44.3693 25.3672V31.1764C44.3693 31.6705 45.2058 32.0758 46.0424 32.0758H50.5298C52.4202 32.0758 53.9535 33.4991 53.9955 35.2684C54.0235 36.4479 53.2849 40.099 51.7796 47.7296Z" stroke="white" stroke-width="1.60838" stroke-linecap="round" stroke-linejoin="round"/>
</svg>
