<svg width="36" height="37" viewBox="0 0 36 37" fill="none" xmlns="http://www.w3.org/2000/svg">
<g filter="url(#filter0_d_1_563)">
<path d="M14.205 12.7498C14.2048 13.1476 14.0466 13.5291 13.7651 13.8102C13.4837 14.0914 13.1021 14.2492 12.7043 14.249C12.3064 14.2488 11.925 14.0906 11.6438 13.8092C11.3627 13.5277 11.2048 13.1461 11.205 12.7483C11.2052 12.3504 11.3634 11.969 11.6449 11.6878C11.9263 11.4067 12.3079 11.2488 12.7058 11.249C13.1036 11.2492 13.485 11.4074 13.7662 11.6889C14.0474 11.9703 14.2052 12.3519 14.205 12.7498ZM14.25 15.3598H11.25V24.7498H14.25V15.3598ZM18.99 15.3598H16.005V24.7498H18.96V19.8223C18.96 17.0773 22.5375 16.8223 22.5375 19.8223V24.7498H25.5V18.8023C25.5 14.1748 20.205 14.3473 18.96 16.6198L18.99 15.3598Z" fill="#75757F"/>
</g>
<rect x="0.5" y="1.01562" width="35" height="35" rx="17.5" stroke="#81818B" stroke-opacity="0.9"/>
<defs>
<filter id="filter0_d_1_563" x="4" y="9" width="28" height="28" filterUnits="userSpaceOnUse" color-interpolation-filters="sRGB">
<feFlood flood-opacity="0" result="BackgroundImageFix"/>
<feColorMatrix in="SourceAlpha" type="matrix" values="0 0 0 0 0 0 0 0 0 0 0 0 0 0 0 0 0 0 127 0" result="hardAlpha"/>
<feOffset dy="4"/>
<feGaussianBlur stdDeviation="2"/>
<feComposite in2="hardAlpha" operator="out"/>
<feColorMatrix type="matrix" values="0 0 0 0 0 0 0 0 0 0 0 0 0 0 0 0 0 0 0.25 0"/>
<feBlend mode="normal" in2="BackgroundImageFix" result="effect1_dropShadow_1_563"/>
<feBlend mode="normal" in="SourceGraphic" in2="effect1_dropShadow_1_563" result="shape"/>
</filter>
</defs>
</svg>
