<svg width="160" height="30" viewBox="0 0 160 30" fill="none" xmlns="http://www.w3.org/2000/svg">
<path d="M4.87564 3.29559C7.02982 1.33372 9.95491 0.188585 12.9195 0.0461529C13.9342 0.0461529 14.9519 0.0519279 15.9665 0.0432129C15.9147 1.08088 15.9665 2.12137 15.936 3.15898C15.7929 5.47838 14.894 7.74544 13.3796 9.56488C11.4113 12.0122 8.40096 13.6543 5.20471 14.0787C3.80921 14.2938 2.39234 14.1572 0.987751 14.195C1.01211 13.0527 0.935933 11.9076 1.03038 10.7682C1.30464 7.9431 2.70319 5.23714 4.87564 3.29559Z" fill="#81818B"/>
<path d="M16.9061 0.0432129C17.9939 0.0548679 19.0816 0.0374383 20.1724 0.0490408C22.8872 0.232108 25.5655 1.22614 27.6098 2.94977C29.8645 4.79536 31.4096 7.43448 31.8055 10.2538C31.9792 11.5617 31.8695 12.8841 31.9367 14.1978C30.9859 14.195 30.0383 14.1921 29.0875 14.1978C26.7508 14.1368 24.4534 13.416 22.4972 12.2011C21.5953 11.5849 20.6691 10.9601 19.9926 10.1055C18.5088 8.52438 17.5003 6.53925 17.1194 4.4466C16.8329 2.99329 16.9487 1.51101 16.9061 0.0432129Z" fill="#81818B"/>
<path d="M0.989776 15.0291C1.95567 15.0813 2.92461 14.9854 3.88741 15.0872C8.00992 15.1714 12.0106 17.3804 14.1464 20.7432C15.3714 22.6266 16.0295 24.8589 15.9442 27.0763C15.9411 27.8035 15.9533 28.5269 15.932 29.2509C14.4024 29.2068 12.8576 29.326 11.3432 29.044C7.97947 28.5038 4.88685 26.5939 3.0251 23.8677C1.61437 21.8854 0.910553 19.4644 0.983686 17.0723C0.983686 16.3892 0.983686 15.7091 0.989776 15.0291Z" fill="#81818B"/>
<path d="M26.7884 15.337C28.446 14.9853 30.1549 15.0434 31.8401 15.0434L31.9136 15.1132C31.8769 16.6333 32.0018 18.1708 31.6821 19.6735C31.0085 23.045 28.6686 26.0559 25.521 27.7097C23.5618 28.7506 21.3131 29.2619 19.0736 29.2388C18.3576 29.242 17.6385 29.2273 16.9225 29.2472C16.9225 27.9888 16.8676 26.7248 17.017 25.4717C17.3643 22.4404 19.0828 19.6182 21.5538 17.7116C23.0834 16.5606 24.8811 15.7265 26.7884 15.337Z" fill="#81818B"/>
<path d="M44.4217 23.621C44.4217 24.1327 44.2358 24.5655 43.8652 24.9199C43.514 25.2546 43.0704 25.4219 42.5343 25.4219C42.0183 25.4219 41.5851 25.2546 41.2344 24.9199C40.8837 24.5655 40.7084 24.1327 40.7084 23.621V5.37741C40.7084 4.86569 40.8837 4.44259 41.2344 4.10806C41.6056 3.75379 42.0597 3.57666 42.5963 3.57666C43.1323 3.57666 43.5654 3.75379 43.8956 4.10806C44.2463 4.44259 44.4217 4.86569 44.4217 5.37741V23.621Z" fill="#81818B"/>
<path d="M59.3275 9.62842C59.8635 9.62842 60.3071 9.8055 60.6584 10.1598C61.0085 10.4943 61.1839 10.9174 61.1839 11.4291V18.9273C61.1839 21.0134 60.5754 22.6665 59.3585 23.8867C58.141 25.1069 56.3875 25.7168 54.0969 25.7168C51.8074 25.7168 50.0534 25.1069 48.8364 23.8867C47.6399 22.6665 47.0414 21.0134 47.0414 18.9273V11.4291C47.0414 10.9174 47.2168 10.4943 47.5675 10.1598C47.9182 9.8055 48.3618 9.62842 48.8984 9.62842C49.4349 9.62842 49.878 9.8055 50.2287 10.1598C50.5799 10.4943 50.7553 10.9174 50.7553 11.4291V18.9273C50.7553 20.1278 51.0341 21.0232 51.5906 21.6136C52.1476 22.1844 52.9834 22.4697 54.0969 22.4697C55.2325 22.4697 56.0777 22.1844 56.6353 21.6136C57.1918 21.0232 57.4706 20.1278 57.4706 18.9273V11.4291C57.4706 10.9174 57.6459 10.4943 57.9966 10.1598C58.3473 9.8055 58.7909 9.62842 59.3275 9.62842Z" fill="#81818B"/>
<path d="M72.3533 9.33325C74.0039 9.33325 75.2209 9.71698 76.0052 10.4845C76.7891 11.2324 77.3051 12.2065 77.5524 13.407L77.0264 13.1413L77.2742 12.669C77.5214 12.2163 77.9031 11.7342 78.4192 11.2225C78.9347 10.6912 79.5537 10.2484 80.2756 9.89411C81.0185 9.52015 81.8438 9.33325 82.7515 9.33325C84.2372 9.33325 85.3613 9.63828 86.1246 10.2483C86.909 10.8584 87.445 11.6752 87.7337 12.6986C88.023 13.7022 88.1674 14.824 88.1674 16.0639V23.6211C88.1674 24.1328 87.992 24.5656 87.6408 24.92C87.2901 25.2547 86.847 25.422 86.3105 25.422C85.7744 25.422 85.3303 25.2547 84.9796 24.92C84.6289 24.5656 84.4535 24.1328 84.4535 23.6211V16.0639C84.4535 15.4144 84.3711 14.8339 84.2063 14.3221C84.0409 13.7908 83.7416 13.3677 83.3085 13.0528C82.8754 12.7379 82.2564 12.5804 81.4521 12.5804C80.6678 12.5804 79.9973 12.7379 79.4403 13.0528C78.8828 13.3677 78.4601 13.7908 78.1714 14.3221C77.9031 14.8339 77.7687 15.4144 77.7687 16.0639V23.6211C77.7687 24.1328 77.5934 24.5656 77.2432 24.92C76.8925 25.2547 76.4483 25.422 75.9123 25.422C75.3758 25.422 74.9321 25.2547 74.582 24.92C74.2307 24.5656 74.0554 24.1328 74.0554 23.6211V16.0639C74.0554 15.4144 73.973 14.8339 73.8076 14.3221C73.6427 13.7908 73.3435 13.3677 72.9104 13.0528C72.4772 12.7379 71.8577 12.5804 71.0534 12.5804C70.2696 12.5804 69.5992 12.7379 69.0416 13.0528C68.4851 13.3677 68.062 13.7908 67.7732 14.3221C67.5049 14.8339 67.3711 15.4144 67.3711 16.0639V23.6211C67.3711 24.1328 67.1957 24.5656 66.845 24.92C66.4938 25.2547 66.0507 25.422 65.5142 25.422C64.9776 25.422 64.5345 25.2547 64.1833 24.92C63.8326 24.5656 63.6572 24.1328 63.6572 23.6211V11.4292C63.6572 10.9175 63.8326 10.4943 64.1833 10.1598C64.5345 9.80554 64.9776 9.62846 65.5142 9.62846C66.0507 9.62846 66.4938 9.80554 66.845 10.1598C67.1957 10.4943 67.3711 10.9175 67.3711 11.4292V12.6986L66.9064 12.61C67.0923 12.2754 67.3506 11.9211 67.6803 11.5472C68.0105 11.1536 68.4127 10.7895 68.8873 10.455C69.3619 10.1204 69.8879 9.85473 70.4654 9.65791C71.0435 9.44145 71.6729 9.33325 72.3533 9.33325Z" fill="#81818B"/>
<path d="M94.1361 23.621C94.1361 24.1327 93.9607 24.5655 93.6095 24.9199C93.2593 25.2545 92.8157 25.4219 92.2792 25.4219C91.7431 25.4219 91.299 25.2545 90.9483 24.9199C90.5981 24.5655 90.4228 24.1327 90.4228 23.621V11.429C90.4228 10.9174 90.5981 10.4942 90.9483 10.1597C91.299 9.80542 91.7431 9.62834 92.2792 9.62834C92.8157 9.62834 93.2593 9.80542 93.6095 10.1597C93.9607 10.4942 94.1361 10.9174 94.1361 11.429V23.621ZM92.2482 7.70947C91.5468 7.70947 91.0517 7.60126 90.7624 7.38475C90.4742 7.1683 90.3298 6.78452 90.3298 6.23348V5.67257C90.3298 5.1019 90.4847 4.71807 90.7934 4.5213C91.1236 4.30479 91.6192 4.19653 92.2792 4.19653C93.0016 4.19653 93.5071 4.30479 93.7954 4.5213C94.0846 4.73776 94.229 5.12153 94.229 5.67257V6.23348C94.229 6.80421 94.0741 7.1978 93.7644 7.41426C93.4557 7.61108 92.9496 7.70947 92.2482 7.70947Z" fill="#81818B"/>
<path d="M105.256 9.33325C106.783 9.33325 107.938 9.63828 108.722 10.2483C109.527 10.8584 110.074 11.6752 110.362 12.6986C110.672 13.7022 110.826 14.824 110.826 16.0639V23.6211C110.826 24.1328 110.651 24.5656 110.3 24.92C109.95 25.2547 109.506 25.422 108.969 25.422C108.433 25.422 107.99 25.2547 107.639 24.92C107.288 24.5656 107.113 24.1328 107.113 23.6211V16.0639C107.113 15.4144 107.02 14.8339 106.835 14.3221C106.669 13.7908 106.36 13.3677 105.906 13.0528C105.452 12.7379 104.802 12.5804 103.956 12.5804C103.131 12.5804 102.43 12.7379 101.852 13.0528C101.295 13.3677 100.862 13.7908 100.552 14.3221C100.263 14.8339 100.118 15.4144 100.118 16.0639V23.6211C100.118 24.1328 99.9437 24.5656 99.593 24.92C99.2423 25.2547 98.7981 25.422 98.2621 25.422C97.7255 25.422 97.2819 25.2547 96.9317 24.92C96.5805 24.5656 96.4052 24.1328 96.4052 23.6211V11.4292C96.4052 10.9175 96.5805 10.4943 96.9317 10.1598C97.2819 9.80554 97.7255 9.62846 98.2621 9.62846C98.7981 9.62846 99.2423 9.80554 99.593 10.1598C99.9437 10.4943 100.118 10.9175 100.118 11.4292V12.6986L99.6549 12.61C99.8408 12.2754 100.109 11.9211 100.459 11.5472C100.81 11.1536 101.223 10.7895 101.697 10.455C102.172 10.1204 102.708 9.85473 103.306 9.65791C103.905 9.44145 104.555 9.33325 105.256 9.33325Z" fill="#81818B"/>
<path d="M129.2 17.5398C129.2 19.1536 128.818 20.5805 128.055 21.8203C127.312 23.0405 126.301 23.995 125.022 24.6837C123.763 25.3728 122.35 25.7168 120.782 25.7168C119.214 25.7168 117.79 25.3728 116.512 24.6837C115.253 23.995 114.242 23.0405 113.479 21.8203C112.736 20.5805 112.365 19.1536 112.365 17.5398C112.365 15.9261 112.736 14.5091 113.479 13.2889C114.242 12.0491 115.253 11.0848 116.512 10.396C117.79 9.68747 119.214 9.33325 120.782 9.33325C122.35 9.33325 123.763 9.68747 125.022 10.396C126.301 11.0848 127.312 12.0491 128.055 13.2889C128.818 14.5091 129.2 15.9261 129.2 17.5398ZM125.486 17.5398C125.486 16.5362 125.27 15.6703 124.836 14.9421C124.423 14.1942 123.856 13.6137 123.134 13.2004C122.433 12.7871 121.649 12.5804 120.782 12.5804C119.916 12.5804 119.121 12.7871 118.399 13.2004C117.698 13.6137 117.13 14.1942 116.697 14.9421C116.285 15.6703 116.078 16.5362 116.078 17.5398C116.078 18.5239 116.285 19.3898 116.697 20.1377C117.13 20.8658 117.698 21.4365 118.399 21.8498C119.121 22.2632 119.916 22.4697 120.782 22.4697C121.649 22.4697 122.433 22.2632 123.134 21.8498C123.856 21.4365 124.423 20.8658 124.836 20.1377C125.27 19.3898 125.486 18.5239 125.486 17.5398Z" fill="#81818B"/>
<path d="M143.041 9.62842C143.577 9.62842 144.021 9.8055 144.372 10.1598C144.722 10.4943 144.898 10.9174 144.898 11.4291V18.9273C144.898 21.0134 144.289 22.6665 143.072 23.8867C141.854 25.1069 140.101 25.7168 137.811 25.7168C135.521 25.7168 133.767 25.1069 132.55 23.8867C131.353 22.6665 130.755 21.0134 130.755 18.9273V11.4291C130.755 10.9174 130.93 10.4943 131.281 10.1598C131.632 9.8055 132.075 9.62842 132.612 9.62842C133.148 9.62842 133.592 9.8055 133.943 10.1598C134.293 10.4943 134.469 10.9174 134.469 11.4291V18.9273C134.469 20.1278 134.747 21.0232 135.304 21.6136C135.861 22.1844 136.697 22.4697 137.811 22.4697C138.945 22.4697 139.792 22.1844 140.348 21.6136C140.906 21.0232 141.184 20.1278 141.184 18.9273V11.4291C141.184 10.9174 141.36 10.4943 141.71 10.1598C142.061 9.8055 142.505 9.62842 143.041 9.62842Z" fill="#81818B"/>
<path d="M146.411 22.9716C146.205 22.6961 146.112 22.3419 146.133 21.9089C146.154 21.4759 146.422 21.102 146.938 20.7871C147.268 20.5903 147.618 20.5116 147.99 20.551C148.361 20.5707 148.722 20.7477 149.073 21.0823C149.672 21.653 150.301 22.0958 150.961 22.4107C151.621 22.7256 152.446 22.883 153.436 22.883C153.746 22.8633 154.086 22.824 154.458 22.765C154.829 22.6863 155.149 22.5288 155.417 22.2927C155.705 22.0368 155.85 21.653 155.85 21.1413C155.85 20.7084 155.695 20.364 155.386 20.1081C155.077 19.8523 154.664 19.6359 154.148 19.4587C153.653 19.2816 153.096 19.1143 152.477 18.9569C151.837 18.7797 151.177 18.583 150.496 18.3665C149.836 18.15 149.228 17.8745 148.67 17.5398C148.114 17.1856 147.66 16.7232 147.309 16.1524C146.958 15.5817 146.783 14.8633 146.783 13.9975C146.783 13.0134 147.071 12.177 147.649 11.4882C148.227 10.7994 148.97 10.2681 149.877 9.89411C150.806 9.52015 151.775 9.33325 152.786 9.33325C153.426 9.33325 154.096 9.41195 154.798 9.5694C155.499 9.70716 156.17 9.9433 156.81 10.2779C157.449 10.5927 157.986 11.0159 158.419 11.5472C158.645 11.8424 158.78 12.1967 158.821 12.61C158.862 13.0233 158.666 13.3972 158.233 13.7318C157.924 13.9679 157.563 14.0762 157.15 14.0565C156.738 14.0171 156.397 13.8794 156.129 13.6432C155.778 13.2102 155.304 12.8658 154.705 12.61C154.127 12.3542 153.457 12.2262 152.694 12.2262C152.384 12.2262 152.044 12.2656 151.672 12.3443C151.322 12.4033 151.012 12.551 150.744 12.7871C150.476 13.0036 150.342 13.3578 150.342 13.8498C150.342 14.3025 150.496 14.6666 150.806 14.9421C151.115 15.1979 151.528 15.4144 152.044 15.5916C152.58 15.749 153.148 15.9065 153.746 16.0639C154.365 16.2213 154.994 16.4083 155.634 16.6247C156.274 16.8413 156.861 17.1266 157.398 17.4808C157.934 17.8351 158.367 18.2976 158.697 18.8683C159.028 19.4193 159.193 20.1278 159.193 20.9938C159.193 21.9975 158.883 22.8536 158.264 23.562C157.645 24.2706 156.872 24.8117 155.943 25.1857C155.015 25.5401 154.065 25.7168 153.096 25.7168C151.879 25.7168 150.662 25.5204 149.444 25.1267C148.227 24.7132 147.216 23.995 146.411 22.9716Z" fill="#81818B"/>
</svg>
