<svg width="168" height="39" viewBox="0 0 168 39" fill="none" xmlns="http://www.w3.org/2000/svg">
<path d="M50.2482 10.8005C51.8358 10.8005 53.2097 11.0561 54.3705 11.5671C55.548 12.0782 56.4521 12.8036 57.0837 13.7433C57.7152 14.683 58.0313 15.7958 58.0313 17.0817C58.0313 18.3511 57.7152 19.4639 57.0837 20.4202C56.4521 21.3599 55.548 22.0853 54.3705 22.5965C53.2097 23.0908 51.8358 23.3382 50.2482 23.3382H46.6388V28.111H42.4918V10.8005H50.2482ZM50.0182 20.0739C51.2635 20.0739 52.2111 19.8184 52.8595 19.3073C53.5084 18.7797 53.8323 18.0379 53.8323 17.0817C53.8323 16.109 53.5084 15.3671 52.8595 14.8561C52.2111 14.3285 51.2635 14.0648 50.0182 14.0648H46.6388V20.0739H50.0182Z" fill="#81818B"/>
<path d="M63.2451 16.5622C63.7223 15.9193 64.3628 15.4329 65.1645 15.1032C65.984 14.7734 66.9222 14.6086 67.9806 14.6086V18.1696C67.5369 18.1366 67.2382 18.1202 67.0844 18.1202C65.9409 18.1202 65.0453 18.4334 64.3969 19.0599C63.748 19.6698 63.4236 20.5931 63.4236 21.8294V28.1109H59.4304V14.8065H63.2451V16.5622Z" fill="#81818B"/>
<path d="M75.5038 28.3084C74.0533 28.3084 72.7476 28.0202 71.5873 27.443C70.4439 26.8496 69.5477 26.0333 68.8993 24.9947C68.251 23.9561 67.9265 22.7773 67.9265 21.4586C67.9265 20.1397 68.251 18.9609 68.8993 17.9223C69.5477 16.8837 70.4439 16.0759 71.5873 15.4989C72.7476 14.9054 74.0533 14.6086 75.5038 14.6086C76.9544 14.6086 78.2517 14.9054 79.3951 15.4989C80.5386 16.0759 81.4348 16.8837 82.0837 17.9223C82.7315 18.9609 83.056 20.1397 83.056 21.4586C83.056 22.7773 82.7315 23.9561 82.0837 24.9947C81.4348 26.0333 80.5386 26.8496 79.3951 27.443C78.2517 28.0202 76.9544 28.3084 75.5038 28.3084ZM75.5038 25.1431C76.5281 25.1431 77.3644 24.8137 78.0128 24.154C78.6785 23.4782 79.0108 22.5798 79.0108 21.4586C79.0108 20.3375 78.6785 19.4473 78.0128 18.7878C77.3644 18.1119 76.5281 17.7739 75.5038 17.7739C74.4801 17.7739 73.6354 18.1119 72.9697 18.7878C72.304 19.4473 71.9711 20.3375 71.9711 21.4586C71.9711 22.5798 72.304 23.4782 72.9697 24.154C73.6354 24.8137 74.4801 25.1431 75.5038 25.1431Z" fill="#81818B"/>
<path d="M101.163 10.8005V28.111H97.758L88.823 17.601V28.111H84.7269V10.8005H88.1573L97.0665 21.3104V10.8005H101.163Z" fill="#81818B"/>
<path d="M109.396 14.6086C111.529 14.6086 113.168 15.1032 114.311 16.0924C115.455 17.0651 116.026 18.5406 116.026 20.5189V28.1109H112.289V26.4538C111.538 27.6903 110.139 28.3084 108.091 28.3084C107.032 28.3084 106.11 28.1356 105.325 27.7893C104.558 27.443 103.969 26.9651 103.559 26.3549C103.15 25.745 102.944 25.0524 102.944 24.2777C102.944 23.0412 103.423 22.0686 104.378 21.3597C105.351 20.6508 106.845 20.2963 108.859 20.2963H112.033C112.033 19.4555 111.769 18.8126 111.239 18.3674C110.71 17.9058 109.916 17.675 108.859 17.675C108.125 17.675 107.399 17.7904 106.682 18.0213C105.983 18.2356 105.385 18.5323 104.89 18.9115L103.457 16.216C104.208 15.7049 105.103 15.3093 106.144 15.029C107.203 14.7488 108.287 14.6086 109.396 14.6086ZM109.089 25.7121C109.772 25.7121 110.377 25.5637 110.906 25.2668C111.435 24.9535 111.811 24.5003 112.033 23.9066V22.5469H109.294C107.655 22.5469 106.836 23.0659 106.836 24.1045C106.836 24.5993 107.032 24.9947 107.425 25.2916C107.834 25.5719 108.389 25.7121 109.089 25.7121Z" fill="#81818B"/>
<path d="M127.244 27.4678C126.852 27.7481 126.365 27.9625 125.785 28.1109C125.222 28.2425 124.624 28.3084 123.993 28.3084C122.355 28.3084 121.083 27.9048 120.179 27.0971C119.291 26.289 118.847 25.102 118.847 23.536V18.0708H116.723V15.1033H118.847V11.8638H122.841V15.1033H126.271V18.0708H122.841V23.4865C122.841 24.0469 122.986 24.4839 123.276 24.7972C123.583 25.0937 124.01 25.2421 124.556 25.2421C125.188 25.2421 125.725 25.0772 126.169 24.7478L127.244 27.4678Z" fill="#81818B"/>
<path d="M142.082 14.8066V28.111H138.293V26.5282C137.764 27.105 137.132 27.5503 136.398 27.8637C135.664 28.1605 134.871 28.3085 134.017 28.3085C132.208 28.3085 130.775 27.806 129.716 26.8003C128.658 25.7947 128.129 24.3026 128.129 22.3244V14.8066H132.123V21.7554C132.123 23.8985 133.053 24.9701 134.913 24.9701C135.869 24.9701 136.637 24.6737 137.218 24.0799C137.797 23.4701 138.087 22.5718 138.087 21.3846V14.8066H142.082Z" fill="#81818B"/>
<path d="M148.315 16.5622C148.793 15.9193 149.434 15.4329 150.235 15.1032C151.054 14.7734 151.994 14.6086 153.052 14.6086V18.1696C152.608 18.1366 152.309 18.1202 152.156 18.1202C151.012 18.1202 150.116 18.4334 149.468 19.0599C148.819 19.6698 148.495 20.5931 148.495 21.8294V28.1109H144.501V14.8065H148.315V16.5622Z" fill="#81818B"/>
<path d="M167.513 21.5082C167.513 21.5573 167.487 21.9036 167.436 22.5469H157.017C157.204 23.371 157.648 24.022 158.348 24.5003C159.048 24.9782 159.918 25.2173 160.959 25.2173C161.676 25.2173 162.307 25.1184 162.853 24.9205C163.417 24.7065 163.937 24.3766 164.415 23.9313L166.54 26.157C165.243 27.5914 163.348 28.3084 160.856 28.3084C159.304 28.3084 157.93 28.0202 156.735 27.443C155.54 26.8496 154.619 26.0333 153.97 24.9947C153.321 23.9561 152.997 22.7773 152.997 21.4586C152.997 20.1562 153.313 18.9857 153.945 17.9471C154.593 16.8919 155.472 16.0759 156.581 15.4989C157.708 14.9054 158.962 14.6086 160.345 14.6086C161.693 14.6086 162.913 14.8889 164.006 15.4494C165.098 16.0099 165.951 16.8177 166.566 17.8729C167.197 18.9115 167.513 20.1232 167.513 21.5082ZM160.37 17.5266C159.466 17.5266 158.706 17.7739 158.092 18.2685C157.477 18.7631 157.102 19.4391 156.965 20.2963H163.749C163.613 19.4555 163.237 18.7878 162.623 18.2933C162.009 17.7822 161.258 17.5266 160.37 17.5266Z" fill="#81818B"/>
<path fill-rule="evenodd" clip-rule="evenodd" d="M19.7479 1.16031C19.1394 0.820263 18.3891 0.820263 17.7807 1.16031C13.4587 3.57536 10.5436 8.09398 10.5436 13.2726C10.5436 14.0106 10.6029 14.7353 10.7169 15.4424C7.74167 14.4664 4.52016 14.8215 1.88886 16.2861C1.27981 16.6252 0.904644 17.2528 0.905274 17.9318C0.908372 21.5142 2.83491 25.0057 6.28521 26.9298C7.97792 27.874 9.82545 28.3226 11.6478 28.3234C11.3706 29.0825 11.2197 29.8989 11.2197 30.7494C11.2197 34.7744 14.5974 38.0367 18.764 38.0367C22.9308 38.0367 26.3082 34.7744 26.3082 30.7494C26.3082 29.8968 26.1567 29.0788 25.8784 28.3185C27.5922 28.2661 29.3183 27.8167 30.9078 26.9298C34.3584 25.0057 36.2847 21.5142 36.2873 17.932C36.2883 17.2529 35.913 16.6253 35.304 16.2863C32.7766 14.8793 29.7041 14.4962 26.829 15.3334C26.9318 14.6609 26.9848 13.9728 26.9848 13.2726C26.9848 8.09398 24.07 3.57536 19.7479 1.16031ZM14.4723 13.2726C14.4723 9.90975 16.1579 6.92544 18.7643 5.06783C21.3706 6.92544 23.0562 9.90975 23.0562 13.2726C23.0562 16.6354 21.3706 19.6197 18.7643 21.4772C16.1579 19.6197 14.4723 16.6354 14.4723 13.2726ZM26.5114 19.5745C28.3254 18.5627 30.4216 18.4451 32.2527 19.0852C31.9114 20.9371 30.7575 22.6316 28.9435 23.6434C27.1294 24.6552 25.0333 24.7727 23.2022 24.1328C23.5437 22.2807 24.6974 20.5862 26.5114 19.5745ZM4.94037 19.0851C6.77136 18.4449 8.86748 18.5626 10.6815 19.5744C12.4956 20.586 13.6492 22.2807 13.9908 24.1324C12.1597 24.7727 10.0636 24.6552 8.24955 23.6434C6.43552 22.6316 5.28194 20.937 4.94037 19.0851ZM15.1484 30.7494C15.1484 28.8207 16.7672 27.2568 18.764 27.2568C20.7608 27.2568 22.3797 28.8207 22.3797 30.7494C22.3797 32.6782 20.7608 34.242 18.764 34.242C16.7672 34.242 15.1484 32.6782 15.1484 30.7494Z" fill="#81818B"/>
</svg>
