<svg width="164" height="32" viewBox="0 0 164 32" fill="none" xmlns="http://www.w3.org/2000/svg">
<path d="M52.8865 27.8315C50.5297 27.8315 48.4465 27.3566 46.6369 26.4078C44.8267 25.437 43.4275 24.0672 42.4384 22.2988C41.4499 20.53 40.9553 18.4486 40.9553 16.0544C40.9553 13.6601 41.4499 11.5787 42.4384 9.81006C43.4275 8.01976 44.8267 6.65014 46.6369 5.70105C48.4465 4.73043 50.5297 4.24512 52.8865 4.24512C54.4861 4.24512 55.8958 4.41768 57.1164 4.76277C58.358 5.08632 59.4941 5.60398 60.5252 6.31577V11.0071C59.5996 10.2306 58.537 9.66984 57.3374 9.3247C56.1588 8.95804 54.8122 8.77471 53.297 8.77471C51.8874 8.77471 50.6137 9.07669 49.4776 9.6806C48.3625 10.263 47.4784 11.1042 46.8264 12.2042C46.1738 13.3043 45.8478 14.5876 45.8478 16.0544C45.8478 17.5427 46.1423 18.8476 46.7314 19.9692C47.3419 21.0693 48.194 21.9213 49.2881 22.5252C50.3822 23.1292 51.6454 23.4311 53.076 23.4311C54.3806 23.4311 55.5167 23.1939 56.4848 22.7193V18.3515H52.918V14.7278H61.1248V25.6312C59.0416 27.0979 56.2958 27.8315 52.8865 27.8315Z" fill="#81818B"/>
<path d="M62.233 11.816H66.8415V14.0485C67.4521 13.2935 68.3041 12.7219 69.3982 12.3337C70.4923 11.9238 71.7345 11.719 73.1231 11.719V15.4397C71.671 15.4397 70.3873 15.6662 69.2722 16.1191C68.1776 16.5721 67.42 17.2623 66.9995 18.1898V27.3461H62.233V11.816Z" fill="#81818B"/>
<path d="M82.2828 27.8316C79.3785 27.8316 77.0952 27.1195 75.4331 25.6958C73.7704 24.2511 72.9393 22.2342 72.9393 19.6458C72.9393 17.079 73.6759 15.0515 75.1491 13.5633C76.6432 12.0749 78.7684 11.3308 81.5252 11.3308C83.3349 11.3308 84.8705 11.6759 86.1336 12.3661C87.3957 13.0563 88.3539 14.0162 89.0059 15.2456C89.6585 16.4535 89.9845 17.8232 89.9845 19.3546V21.3282H77.4848C77.8213 23.3127 79.631 24.305 82.9138 24.305C83.8819 24.305 84.8815 24.2187 85.9126 24.0459C86.9437 23.8734 87.8383 23.6361 88.5959 23.3342V26.764C87.8593 27.0871 86.9122 27.3462 85.7546 27.5405C84.5975 27.7342 83.4399 27.8316 82.2828 27.8316ZM85.4706 18.1575C85.4076 17.1222 85.0285 16.3241 84.3345 15.7633C83.6399 15.181 82.6823 14.8897 81.4617 14.8897C80.2626 14.8897 79.3154 15.181 78.6209 15.7633C77.9268 16.3457 77.5478 17.1438 77.4848 18.1575H85.4706Z" fill="#81818B"/>
<path d="M99.7543 27.8316C96.8505 27.8316 94.5673 27.1195 92.9046 25.6958C91.2425 24.2511 90.4109 22.2342 90.4109 19.6458C90.4109 17.079 91.1475 15.0515 92.6206 13.5633C94.1148 12.0749 96.24 11.3308 98.9967 11.3308C100.806 11.3308 102.343 11.6759 103.606 12.3661C104.868 13.0563 105.825 14.0162 106.477 15.2456C107.13 16.4535 107.456 17.8232 107.456 19.3546V21.3282H94.9563C95.2929 23.3127 97.1031 24.305 100.386 24.305C101.354 24.305 102.354 24.2187 103.384 24.0459C104.415 23.8734 105.31 23.6361 106.067 23.3342V26.764C105.331 27.0871 104.384 27.3462 103.227 27.5405C102.069 27.7342 100.912 27.8316 99.7543 27.8316ZM102.943 18.1575C102.879 17.1222 102.501 16.3241 101.807 15.7633C101.111 15.181 100.154 14.8897 98.9337 14.8897C97.7341 14.8897 96.7875 15.181 96.093 15.7633C95.3984 16.3457 95.0199 17.1438 94.9563 18.1575H102.943Z" fill="#81818B"/>
<path d="M108.514 11.8161H113.122V13.725C113.817 12.927 114.637 12.3338 115.585 11.9455C116.553 11.5357 117.563 11.3308 118.615 11.3308C120.678 11.3308 122.214 11.9024 123.223 13.0456C124.254 14.1672 124.771 15.6878 124.771 17.6075V27.3462H120.004V18.1575C120.004 16.1516 119.099 15.1486 117.289 15.1486C116.49 15.1486 115.743 15.3535 115.048 15.7633C114.353 16.1516 113.764 16.734 113.28 17.5104V27.3462H108.514V11.8161Z" fill="#81818B"/>
<path d="M128.975 9.422C128.239 9.422 127.619 9.17399 127.114 8.67787C126.608 8.18179 126.356 7.55626 126.356 6.80131C126.356 6.06799 126.608 5.45326 127.114 4.95714C127.619 4.43949 128.239 4.18066 128.975 4.18066C129.712 4.18066 130.333 4.43949 130.838 4.95714C131.343 5.45326 131.595 6.06799 131.595 6.80131C131.595 7.55626 131.343 8.18179 130.838 8.67787C130.333 9.17399 129.712 9.422 128.975 9.422ZM126.576 11.8162H131.375V27.3463H126.576V11.8162Z" fill="#81818B"/>
<path d="M139.504 27.8316C138.368 27.8316 137.147 27.7018 135.842 27.4431C134.559 27.2059 133.549 26.8608 132.812 26.4079V22.5901C133.654 23.1077 134.664 23.5283 135.842 23.8518C137.021 24.1752 138.115 24.337 139.125 24.337C139.988 24.337 140.619 24.2616 141.019 24.1108C141.418 23.9597 141.618 23.6793 141.618 23.2695C141.618 22.946 141.503 22.6871 141.271 22.493C141.04 22.2773 140.682 22.0939 140.198 21.943C139.735 21.7704 138.956 21.5224 137.862 21.1988C136.579 20.8106 135.568 20.4223 134.832 20.0341C134.117 19.6242 133.57 19.1174 133.191 18.5134C132.833 17.9095 132.654 17.1329 132.654 16.1839C132.654 14.5662 133.274 13.3583 134.517 12.5603C135.779 11.7406 137.483 11.3308 139.63 11.3308C140.682 11.3308 141.766 11.4494 142.881 11.6867C144.017 11.9024 144.891 12.1936 145.501 12.5603V16.281C144.891 15.8712 144.091 15.5368 143.102 15.278C142.134 15.0192 141.187 14.8897 140.261 14.8897C139.398 14.8897 138.725 14.976 138.241 15.1486C137.778 15.3212 137.546 15.6447 137.546 16.1192C137.546 16.529 137.767 16.8418 138.209 17.0575C138.672 17.2732 139.525 17.5428 140.766 17.8664L141.398 18.0281C142.723 18.3948 143.754 18.8046 144.491 19.2576C145.227 19.689 145.743 20.2174 146.038 20.8429C146.353 21.4469 146.511 22.2126 146.511 23.1401C146.511 24.5637 145.911 25.7068 144.712 26.5697C143.513 27.4107 141.776 27.8316 139.504 27.8316Z" fill="#81818B"/>
<path d="M147.613 3.43628H152.379V13.5955C153.095 12.8405 153.905 12.2797 154.809 11.9131C155.715 11.5248 156.683 11.3307 157.714 11.3307C159.776 11.3307 161.312 11.9023 162.322 13.0455C163.353 14.1671 163.869 15.6877 163.869 17.6074V27.3461H159.103V18.1574C159.103 16.1515 158.198 15.1485 156.388 15.1485C155.588 15.1485 154.842 15.3534 154.147 15.7632C153.452 16.1515 152.863 16.7338 152.379 17.5103V27.3461H147.613V3.43628Z" fill="#81818B"/>
<path fill-rule="evenodd" clip-rule="evenodd" d="M24.6771 8.01421C24.6771 12.124 21.427 15.4556 17.4174 15.4556C13.4078 15.4556 10.1575 12.124 10.1575 8.01421C10.1575 3.9044 13.4078 0.572754 17.4174 0.572754C21.427 0.572754 24.6771 3.9044 24.6771 8.01421ZM0.530169 14.9148C8.43971 14.3683 15.3331 20.4383 15.9752 28.5628C16.0418 29.4045 16.0386 30.2356 15.9706 31.0504C8.06108 31.5969 1.16768 25.5268 0.525549 17.4024C0.459084 16.5606 0.462234 15.7293 0.530169 14.9148ZM21.0882 30.7659C29.0145 30.1075 34.9362 23.042 34.4033 14.9348C33.6085 14.8651 32.7979 14.8618 31.9762 14.93C24.05 15.5882 18.1282 22.6539 18.6613 30.7611C19.456 30.831 20.2669 30.8341 21.0882 30.7659Z" fill="#81818B"/>
</svg>
