<svg width="164" height="35" viewBox="0 0 164 35" fill="none" xmlns="http://www.w3.org/2000/svg">
<path fill-rule="evenodd" clip-rule="evenodd" d="M6.41538 8.97047C9.15572 5.46825 13.5439 3.1993 18.4899 3.1993C23.4649 3.1993 27.8754 5.49502 30.6125 9.03237C30.4959 9.14619 30.3899 9.26416 30.2938 9.38197C29.7924 9.99884 29.4152 10.7934 29.113 11.6003C28.5044 13.2231 28.0402 15.3429 27.6105 17.3278L27.5722 17.5063C27.1434 19.4876 26.7448 21.3303 26.2629 22.6982C26.0464 23.3127 25.8411 23.7472 25.659 24.0254C25.469 23.7449 25.2534 23.3052 25.0253 22.6818C24.5098 21.2747 24.0763 19.3607 23.6167 17.317L23.6018 17.2501V17.25C23.1602 15.2871 22.6917 13.2043 22.1076 11.61C21.8142 10.8091 21.4542 10.0225 20.9832 9.41131C20.5211 8.81155 19.7517 8.13467 18.6266 8.13467C17.5085 8.13467 16.7356 8.8042 16.2667 9.39724C15.7867 10.0045 15.4125 10.7878 15.1042 11.5891C14.4834 13.2026 13.9758 15.3133 13.5034 17.301L13.4546 17.5063C12.9869 19.4753 12.5496 21.3162 12.0532 22.6867C11.8637 23.21 11.6849 23.6083 11.5231 23.8927C11.3649 23.6096 11.1905 23.214 11.0062 22.6951C10.53 21.3538 10.1128 19.5644 9.66481 17.6426L9.58638 17.3063C9.12218 15.3174 8.61854 13.2029 7.98886 11.5843C7.67601 10.7801 7.29334 9.9928 6.79816 9.38275C6.68602 9.24468 6.5586 9.1045 6.41538 8.97047ZM4.75685 11.6596C4.88737 11.9045 5.02544 12.208 5.16819 12.575C5.71325 13.976 6.17498 15.8877 6.65047 17.9249L6.74303 18.3219C7.17595 20.1807 7.62629 22.1144 8.15675 23.6083C8.43889 24.4028 8.77961 25.181 9.21778 25.7858C9.63216 26.3578 10.3756 27.0967 11.5186 27.0967C12.6584 27.0967 13.4036 26.3614 13.8208 25.792C14.2627 25.1886 14.609 24.4112 14.8968 23.6162C15.4486 22.0927 15.9184 20.1138 16.368 18.2199V18.2198L16.4368 17.9303C16.9212 15.8918 17.3876 13.9763 17.9286 12.5702C18.1793 11.9187 18.4139 11.4649 18.6182 11.1833C18.8118 11.4625 19.033 11.9091 19.2676 12.5493C19.7832 13.9566 20.2163 15.8705 20.676 17.9142L20.691 17.9811C21.1325 19.9441 21.601 22.027 22.1851 23.6211C22.4785 24.4223 22.8386 25.2089 23.3095 25.8199C23.7718 26.4198 24.541 27.0967 25.666 27.0967C26.797 27.0967 27.5634 26.4136 28.0202 25.8084C28.484 25.1943 28.8327 24.405 29.1144 23.6052C29.6559 22.0687 30.0864 20.0752 30.497 18.1788V18.1787L30.5558 17.9034C30.9978 15.8622 31.422 13.9558 31.946 12.559C32.0594 12.2551 32.1712 11.996 32.2778 11.7784C33.0805 13.5265 33.5257 15.4567 33.5257 17.4857C33.5257 25.3757 26.7942 31.7721 18.4899 31.7721C10.1857 31.7721 3.45386 25.3757 3.45386 17.4857C3.45386 15.4106 3.91948 13.4388 4.75685 11.6596ZM18.4899 0.342041C8.52488 0.342041 0.446655 8.01749 0.446655 17.4857C0.446655 26.9538 8.52488 34.6292 18.4899 34.6292C28.4551 34.6292 36.5329 26.9538 36.5329 17.4857C36.5329 8.01749 28.4551 0.342041 18.4899 0.342041ZM18.8336 10.9442C18.8336 10.9445 18.8301 10.9472 18.8231 10.9511C18.8301 10.9458 18.8336 10.9438 18.8336 10.9442ZM18.418 10.9461C18.411 10.9421 18.4075 10.9393 18.4075 10.9389C18.4075 10.9385 18.4111 10.9406 18.418 10.9461ZM25.4373 24.2966C25.4373 24.2966 25.4406 24.2935 25.4471 24.2896C25.4406 24.2949 25.4373 24.2971 25.4373 24.2966ZM25.8746 24.2851C25.8815 24.2891 25.8853 24.2918 25.8853 24.2922C25.8853 24.2926 25.8815 24.2904 25.8746 24.2851ZM11.2105 24.3223C11.2104 24.3218 11.2148 24.3178 11.2234 24.3121C11.2148 24.3196 11.2105 24.3227 11.2105 24.3223ZM11.8195 24.3148C11.8281 24.3205 11.8324 24.3245 11.8324 24.3249C11.8323 24.3254 11.828 24.3227 11.8195 24.3148Z" fill="#81818B"/>
<path d="M46.4958 27.6352L42.1205 13.4146H45.953L48.5481 23.6499L51.5652 13.4146H55.8503L58.868 23.6499L61.493 13.4146H65.3255L60.9197 27.6352H56.9066L53.7078 16.9984L50.5095 27.6352H46.4958Z" fill="#81818B"/>
<path d="M70.9488 27.9792C69.6615 27.9792 68.6052 27.7876 67.7804 27.4053C66.9562 27.0041 66.3424 26.4785 65.9398 25.8286C65.5376 25.1787 65.3365 24.462 65.3365 23.6784C65.3365 22.3596 65.8794 21.2892 66.9656 20.4673C68.0519 19.6454 69.682 19.2344 71.8544 19.2344H75.6565V18.8904C75.6565 17.9156 75.3646 17.1989 74.7813 16.7401C74.198 16.2814 73.4735 16.0521 72.6089 16.0521C71.824 16.0521 71.1399 16.2336 70.5566 16.5968C69.9734 16.9408 69.6111 17.4569 69.4704 18.145H65.6983C65.7991 17.1129 66.1613 16.2145 66.7845 15.4499C67.4287 14.6854 68.2535 14.1024 69.2588 13.701C70.2653 13.2806 71.3914 13.0703 72.6388 13.0703C74.7713 13.0703 76.4508 13.5768 77.6783 14.5898C78.9052 15.6029 79.5189 17.0364 79.5189 18.8904V27.635H76.2292L75.8675 25.3415C75.425 26.106 74.8012 26.7364 73.9969 27.2337C73.2121 27.7305 72.1962 27.9792 70.9488 27.9792ZM71.824 25.1119C72.9307 25.1119 73.7854 24.7677 74.3886 24.0797C75.0123 23.3918 75.405 22.541 75.5662 21.5281H72.2765C71.2507 21.5281 70.5167 21.7097 70.0736 22.0728C69.6316 22.4167 69.41 22.8471 69.41 23.363C69.41 23.9173 69.6316 24.3474 70.0736 24.6531C70.5167 24.9588 71.0995 25.1119 71.824 25.1119Z" fill="#81818B"/>
<path d="M85.5989 27.6352L80.1074 13.4146H84.1504L87.9525 24.1662L91.7545 13.4146H95.7981L90.2761 27.6352H85.5989Z" fill="#81818B"/>
<path d="M103.562 27.9792C102.054 27.9792 100.716 27.673 99.5491 27.0616C98.3826 26.4497 97.4675 25.5897 96.8034 24.481C96.1393 23.3727 95.808 22.0919 95.808 20.6393C95.808 19.1676 96.1298 17.8583 96.7729 16.7115C97.4371 15.5646 98.3422 14.6759 99.4893 14.0451C100.655 13.3952 102.023 13.0703 103.593 13.0703C105.061 13.0703 106.359 13.3761 107.486 13.9878C108.612 14.5994 109.487 15.4404 110.111 16.5107C110.754 17.562 111.077 18.7375 111.077 20.0372C111.077 20.2475 111.066 20.4673 111.046 20.6966C111.046 20.926 111.036 21.1649 111.016 21.4134H99.64C99.7203 22.5219 100.123 23.3918 100.847 24.0227C101.591 24.6531 102.487 24.9685 103.533 24.9685C104.317 24.9685 104.971 24.8062 105.494 24.481C106.037 24.1372 106.439 23.6975 106.701 23.1621H110.623C110.342 24.0607 109.869 24.8827 109.205 25.6282C108.561 26.3542 107.757 26.9275 106.791 27.3483C105.846 27.7686 104.769 27.9792 103.562 27.9792ZM103.593 16.0521C102.648 16.0521 101.812 16.3101 101.088 16.8261C100.364 17.3231 99.9014 18.0876 99.6998 19.1198H107.153C107.093 18.1832 106.731 17.4377 106.067 16.8834C105.403 16.3292 104.579 16.0521 103.593 16.0521Z" fill="#81818B"/>
<path d="M113.118 27.635V6.99219H116.98V27.635H113.118Z" fill="#81818B"/>
<path d="M126.991 27.9792C125.483 27.9792 124.145 27.673 122.978 27.0616C121.812 26.4497 120.897 25.5897 120.233 24.481C119.568 23.3727 119.237 22.0919 119.237 20.6393C119.237 19.1676 119.559 17.8583 120.202 16.7115C120.866 15.5646 121.771 14.6759 122.918 14.0451C124.085 13.3952 125.453 13.0703 127.022 13.0703C128.49 13.0703 129.788 13.3761 130.915 13.9878C132.041 14.5994 132.917 15.4404 133.54 16.5107C134.183 17.562 134.506 18.7375 134.506 20.0372C134.506 20.2475 134.495 20.4673 134.475 20.6966C134.475 20.926 134.465 21.1649 134.445 21.4134H123.069C123.149 22.5219 123.552 23.3918 124.276 24.0227C125.02 24.6531 125.916 24.9685 126.962 24.9685C127.746 24.9685 128.4 24.8062 128.923 24.481C129.466 24.1372 129.868 23.6975 130.13 23.1621H134.053C133.771 24.0607 133.298 24.8827 132.635 25.6282C131.99 26.3542 131.186 26.9275 130.22 27.3483C129.275 27.7686 128.199 27.9792 126.991 27.9792ZM127.022 16.0521C126.077 16.0521 125.242 16.3101 124.517 16.8261C123.793 17.3231 123.331 18.0876 123.129 19.1198H130.582C130.522 18.1832 130.16 17.4377 129.496 16.8834C128.832 16.3292 128.008 16.0521 127.022 16.0521Z" fill="#81818B"/>
<path d="M142.733 27.9792C141.405 27.9792 140.238 27.7783 139.233 27.377C138.226 26.9563 137.422 26.3829 136.818 25.6565C136.215 24.9305 135.853 24.0894 135.732 23.1338H139.625C139.745 23.6877 140.068 24.166 140.591 24.5672C141.133 24.9495 141.827 25.1406 142.672 25.1406C143.517 25.1406 144.131 24.9783 144.513 24.6531C144.915 24.3284 145.117 23.9554 145.117 23.5351C145.117 22.9233 144.835 22.5122 144.272 22.3021C143.709 22.0728 142.924 21.853 141.918 21.6428C141.275 21.509 140.621 21.3465 139.957 21.1554C139.293 20.9643 138.68 20.7253 138.116 20.4386C137.573 20.1328 137.13 19.7505 136.788 19.2918C136.446 18.8139 136.276 18.231 136.276 17.5429C136.276 16.2814 136.798 15.2206 137.845 14.3605C138.911 13.5003 140.399 13.0703 142.31 13.0703C144.081 13.0703 145.489 13.4621 146.535 14.2458C147.601 15.0295 148.235 16.1094 148.436 17.4856H144.785C144.563 16.4343 143.728 15.9087 142.281 15.9087C141.556 15.9087 140.993 16.0425 140.591 16.3101C140.208 16.5777 140.017 16.9121 140.017 17.3135C140.017 17.734 140.309 18.0685 140.892 18.317C141.476 18.5655 142.25 18.7948 143.216 19.0051C144.261 19.2344 145.217 19.4925 146.082 19.7792C146.967 20.0468 147.671 20.4577 148.195 21.012C148.718 21.5472 148.979 22.3211 148.979 23.3342C148.999 24.2138 148.757 25.0066 148.255 25.714C147.752 26.421 147.028 26.9753 146.082 27.377C145.137 27.7783 144.02 27.9792 142.733 27.9792Z" fill="#81818B"/>
<path d="M157.379 27.9792C156.052 27.9792 154.885 27.7783 153.879 27.377C152.873 26.9563 152.069 26.3829 151.465 25.6565C150.862 24.9305 150.499 24.0894 150.379 23.1338H154.272C154.392 23.6877 154.714 24.166 155.237 24.5672C155.78 24.9495 156.474 25.1406 157.319 25.1406C158.164 25.1406 158.778 24.9783 159.16 24.6531C159.562 24.3284 159.764 23.9554 159.764 23.5351C159.764 22.9233 159.482 22.5122 158.918 22.3021C158.355 22.0728 157.571 21.853 156.565 21.6428C155.921 21.509 155.267 21.3465 154.603 21.1554C153.94 20.9643 153.326 20.7253 152.763 20.4386C152.22 20.1328 151.777 19.7505 151.435 19.2918C151.093 18.8139 150.922 18.231 150.922 17.5429C150.922 16.2814 151.445 15.2206 152.491 14.3605C153.558 13.5003 155.046 13.0703 156.957 13.0703C158.727 13.0703 160.135 13.4621 161.182 14.2458C162.247 15.0295 162.881 16.1094 163.083 17.4856H159.431C159.21 16.4343 158.375 15.9087 156.927 15.9087C156.202 15.9087 155.639 16.0425 155.237 16.3101C154.855 16.5777 154.664 16.9121 154.664 17.3135C154.664 17.734 154.955 18.0685 155.539 18.317C156.122 18.5655 156.896 18.7948 157.862 19.0051C158.908 19.2344 159.864 19.4925 160.729 19.7792C161.614 20.0468 162.318 20.4577 162.841 21.012C163.364 21.5472 163.626 22.3211 163.626 23.3342C163.646 24.2138 163.404 25.0066 162.901 25.714C162.398 26.421 161.675 26.9753 160.729 27.377C159.783 27.7783 158.667 27.9792 157.379 27.9792Z" fill="#81818B"/>
</svg>
