<svg width="148" height="40" viewBox="0 0 148 40" fill="none" xmlns="http://www.w3.org/2000/svg">
<path d="M57.6049 17.3898C57.2583 16.7512 56.7565 16.2678 56.0997 15.9394C55.4611 15.5928 54.704 15.4194 53.8283 15.4194C52.3139 15.4194 51.1008 15.9212 50.1885 16.9246C49.2762 17.9098 48.8202 19.2325 48.8202 20.8927C48.8202 22.6624 49.2946 24.0491 50.2432 25.0525C51.2102 26.0377 52.5329 26.5303 54.2114 26.5303C55.3608 26.5303 56.3278 26.2384 57.1123 25.6546C57.9151 25.0707 58.4988 24.2315 58.8638 23.1368H52.9252V19.6886H63.1056V24.0399C62.759 25.2075 62.166 26.2931 61.3268 27.2966C60.5058 28.3 59.4567 29.1119 58.1796 29.7322C56.9025 30.3525 55.4611 30.6627 53.8556 30.6627C51.9582 30.6627 50.2614 30.2522 48.7654 29.4312C47.2876 28.592 46.1291 27.4334 45.2899 25.9556C44.4688 24.4778 44.0583 22.7902 44.0583 20.8927C44.0583 18.9953 44.4688 17.3077 45.2899 15.8299C46.1291 14.3339 47.2876 13.1753 48.7654 12.3543C50.2432 11.5151 51.9308 11.0955 53.8283 11.0955C56.1271 11.0955 58.061 11.6519 59.63 12.7648C61.2173 13.8777 62.2664 15.4194 62.7772 17.3898H57.6049ZM70.3775 17.8003C70.9248 16.9611 71.609 16.3043 72.43 15.8299C73.251 15.3373 74.1632 15.091 75.1666 15.091V20.0444H73.8804C72.7128 20.0444 71.8371 20.2998 71.2532 20.8106C70.6693 21.3032 70.3775 22.179 70.3775 23.4379V30.5258H65.6978V15.2552H70.3775V17.8003ZM84.3546 30.7448C82.8585 30.7448 81.5085 30.4255 80.3043 29.7869C79.1184 29.1483 78.1788 28.2362 77.4856 27.0503C76.8104 25.8643 76.473 24.4778 76.473 22.8905C76.473 21.3215 76.8196 19.9441 77.5129 18.7581C78.2061 17.554 79.1549 16.6327 80.3591 15.9941C81.5632 15.3555 82.9132 15.0363 84.4093 15.0363C85.9054 15.0363 87.2555 15.3555 88.4596 15.9941C89.6638 16.6327 90.6124 17.554 91.3058 18.7581C91.999 19.9441 92.3457 21.3215 92.3457 22.8905C92.3457 24.4596 91.9899 25.8461 91.2784 27.0503C90.5851 28.2362 89.6272 29.1483 88.4049 29.7869C87.2007 30.4255 85.8506 30.7448 84.3546 30.7448ZM84.3546 26.6945C85.2486 26.6945 86.0057 26.3661 86.626 25.7093C87.2645 25.0525 87.5839 24.1129 87.5839 22.8905C87.5839 21.6682 87.2737 20.7285 86.6534 20.0717C86.0513 19.4149 85.3033 19.0865 84.4093 19.0865C83.4971 19.0865 82.74 19.4149 82.1379 20.0717C81.5358 20.7103 81.2348 21.6499 81.2348 22.8905C81.2348 24.1129 81.5267 25.0525 82.1105 25.7093C82.7126 26.3661 83.4606 26.6945 84.3546 26.6945ZM116.749 15.2552L112.616 30.5258H107.444L105.036 20.6191L102.546 30.5258H97.4009L93.2411 15.2552H97.9208L100.083 26.1745L102.655 15.2552H107.608L110.208 26.1198L112.343 15.2552H116.749ZM126.196 19.1413H123.679V30.5258H118.999V19.1413H117.302V15.2552H118.999V14.8173C118.999 12.9382 119.537 11.5151 120.614 10.5481C121.69 9.56291 123.268 9.07031 125.348 9.07031C125.694 9.07031 125.95 9.07944 126.114 9.09768V13.0659C125.221 13.0111 124.591 13.1388 124.226 13.449C123.861 13.7592 123.679 14.3156 123.679 15.1184V15.2552H126.196V19.1413ZM143.994 15.2552L134.416 37.778H129.38L132.883 30.0059L126.671 15.2552H131.898L135.429 24.8062L138.931 15.2552H143.994Z" fill="white"/>
<path d="M23.1565 12.6321C23.1565 8.56289 26.4552 5.26416 30.5244 5.26416H37.8924V12.6321C37.8924 16.7014 34.5937 20.0001 30.5244 20.0001C26.4552 20.0001 23.1565 16.7014 23.1565 12.6321Z" fill="#FF6D35"/>
<path d="M30.5243 37.6773C26.4551 37.6773 23.1564 34.3786 23.1564 30.3094V22.9414H30.5243C34.5936 22.9414 37.8923 26.2402 37.8923 30.3094C37.8923 34.3786 34.5936 37.6773 30.5243 37.6773Z" fill="#5CC97B"/>
<path d="M20.8348 20.6522C20.8348 12.4754 14.7086 5.84692 7.15147 5.84692V30.0214C7.15147 34.1096 10.2146 37.424 13.9932 37.424C17.7718 37.424 20.8348 34.1096 20.8348 30.0214V20.6522Z" fill="#3D96F4"/>
</svg>
